<?xml version="1.0" encoding="UTF-8" standalone="no"?>
<svg
   width="18"
   height="18"
   enable-background="new"
   version="1.1"
   id="svg2"
   sodipodi:docname="alltabs.svg"
   inkscape:version="1.3.2 (091e20e, 2023-11-25)"
   xmlns:inkscape="http://www.inkscape.org/namespaces/inkscape"
   xmlns:sodipodi="http://sodipodi.sourceforge.net/DTD/sodipodi-0.dtd"
   xmlns="http://www.w3.org/2000/svg"
   xmlns:svg="http://www.w3.org/2000/svg">
  <defs
     id="defs2" />
  <sodipodi:namedview
     id="namedview2"
     pagecolor="#ffffff"
     bordercolor="#000000"
     borderopacity="0.25"
     inkscape:showpageshadow="2"
     inkscape:pageopacity="0.0"
     inkscape:pagecheckerboard="0"
     inkscape:deskcolor="#d1d1d1"
     showgrid="true"
     inkscape:zoom="37.625"
     inkscape:cx="7.986711"
     inkscape:cy="5.9269103"
     inkscape:window-width="1408"
     inkscape:window-height="747"
     inkscape:window-x="352"
     inkscape:window-y="25"
     inkscape:window-maximized="0"
     inkscape:current-layer="svg2">
    <inkscape:grid
       id="grid2"
       units="px"
       originx="0"
       originy="0"
       spacingx="1"
       spacingy="1"
       empcolor="#0099e5"
       empopacity="0.30196078"
       color="#0099e5"
       opacity="0.14901961"
       empspacing="5"
       dotted="false"
       gridanglex="30"
       gridanglez="30"
       visible="true" />
  </sodipodi:namedview>
  <path
     id="path2"
     style="display:inline;fill:#707070;stroke:#707070;stroke-width:0.190931;stroke-dasharray:none;stroke-opacity:1"
     d="M 4.0473602,13.96049 V 12.830067 H 2.8133953 c -0.6836164,0 -1.2339647,-0.504167 -1.2339647,-1.130419 V 2.6563027 c 0,-0.6262517 0.5503483,-1.1304186 1.2339647,-1.1304186 h 8.6377557 c 0.683611,0 1.233961,0.5041669 1.233961,1.1304186 v 1.1304187 h 1.233969 V 2.6563027 c 0,-1.2525039 -1.100698,-2.2608372 -2.46793,-2.2608372 H 2.8133953 c -1.3672331,0 -2.4679298,1.0083333 -2.4679298,2.2608372 v 9.0433453 c 0,1.252504 1.1006967,2.260842 2.4679298,2.260842 z m 2.518492,-9.9862601 c -1.3672328,0 -2.4679294,1.008334 -2.4679294,2.2608375 v 9.0433466 c 0,1.252508 1.1006966,2.260839 2.4679294,2.260839 h 8.6377568 c 1.367231,0 2.467925,-1.008331 2.467925,-2.260839 V 6.2350674 c 0,-1.2525035 -1.100694,-2.2608375 -2.467925,-2.2608375 z m 0,1.1304187 h 8.6377568 c 0.683611,0 1.23396,0.504167 1.23396,1.1304188 v 9.0433466 c 0,0.626252 -0.550349,1.130424 -1.23396,1.130424 H 6.5658522 c -0.6836164,0 -1.2339648,-0.504172 -1.2339648,-1.130424 V 6.2350674 c 0,-0.6262518 0.5503484,-1.1304188 1.2339648,-1.1304188 z" />
</svg>
