<?xml version="1.0" encoding="UTF-8" standalone="no"?>
<svg
   width="18"
   height="18"
   version="1.1"
   id="svg1"
   sodipodi:docname="applications-engineering-symbolic.svg"
   inkscape:version="1.3 (0e150ed, 2023-07-21)"
   xmlns:inkscape="http://www.inkscape.org/namespaces/inkscape"
   xmlns:sodipodi="http://sodipodi.sourceforge.net/DTD/sodipodi-0.dtd"
   xmlns="http://www.w3.org/2000/svg"
   xmlns:svg="http://www.w3.org/2000/svg">
  <defs
     id="defs1" />
  <sodipodi:namedview
     id="namedview1"
     pagecolor="#ffffff"
     bordercolor="#000000"
     borderopacity="0.25"
     inkscape:showpageshadow="2"
     inkscape:pageopacity="0.0"
     inkscape:pagecheckerboard="0"
     inkscape:deskcolor="#d1d1d1"
     showgrid="true"
     inkscape:zoom="37.625"
     inkscape:cx="8"
     inkscape:cy="5.5813953"
     inkscape:window-width="1408"
     inkscape:window-height="747"
     inkscape:window-x="308"
     inkscape:window-y="25"
     inkscape:window-maximized="0"
     inkscape:current-layer="svg1">
    <inkscape:grid
       id="grid1"
       units="px"
       originx="0"
       originy="0"
       spacingx="1"
       spacingy="1"
       empcolor="#0099e5"
       empopacity="0.30196078"
       color="#0099e5"
       opacity="0.14901961"
       empspacing="5"
       dotted="false"
       gridanglex="30"
       gridanglez="30"
       visible="true" />
  </sodipodi:namedview>
  <path
     d="m 12.081967,1.4673664 a 1.0313531,1.0347014 0 0 0 -0.608272,0.2000499 c -0.926176,0.681469 -1.4742751,1.7676106 -1.4743783,2.9199459 0.00122,1.3717734 0.8936193,2.4343055 2.0625003,3.0452356 v 1.2205153 a 7.21875,7.2421858 0 0 1 1.03125,0.6001496 V 7.1193131 c -1.19955,-0.2456446 -2.061366,-1.3036969 -2.0625,-2.5319716 1.01e-4,-0.8237469 0.391287,-1.5981435 1.053422,-2.0853357 -0.0041,0.037589 -0.02215,0.0704 -0.02215,0.109119 v 2.069196 c 0,0.5731673 0.459938,1.034598 1.03125,1.034598 h 1.03125 c 0.571313,0 1.03125,-0.4614307 1.03125,-1.034598 v -2.069196 c 0,-0.038717 -0.01807,-0.071528 -0.02215,-0.109119 0.662104,0.4871715 1.053319,1.2615888 1.053422,2.0853357 -1.33e-4,1.2289989 -0.862249,2.2881169 -2.0625,2.5339373 v 3.2068402 a 7.21875,7.2421858 0 0 1 1.03125,1.3397 V 7.6324737 C 16.325048,7.021078 17.218008,5.9599426 17.218111,4.587238 17.217969,3.4349028 16.669929,2.3487818 15.743733,1.6672921 a 1.0313531,1.0347014 0 0 0 -1.63546,0.9477125 c 0.01311,0.1204582 0.01461,0.1529136 0.01612,0.1737814 v 1.8913486 h -1.03125 V 2.788786 c 0.0015,-0.020866 0.003,-0.053317 0.01612,-0.1737814 A 1.0313531,1.0347014 0 0 0 12.08204,1.4672216 Z M 8.968108,9.1884677 a 6.1875,6.2075878 0 0 0 -6.1875,6.2075873 H 0.71810797 v 1.034598 H 17.218108 v -1.034598 h -2.0625 a 6.1875,6.2075878 0 0 0 -6.1875,-6.2075873 z m 0,1.0345983 a 5.15625,5.1729899 0 0 1 5.15625,5.172989 h -1.03125 a 4.125,4.1383919 0 0 0 -4.125,-4.138392 4.125,4.1383919 0 0 0 -0.062439,0 4.125,4.1383919 0 0 0 -4.0626094,4.138392 h -1.03125 a 5.15625,5.1729899 0 0 1 5.15625,-5.172989 z m -0.054382,2.069195 a 3.09375,3.1037939 0 0 1 0.00201,0 3.09375,3.1037939 0 0 1 0.052368,0 3.09375,3.1037939 0 0 1 3.09375,3.103794 H 5.8743582 a 3.09375,3.1037939 0 0 1 3.0394031,-3.103794 z"
     fill="#707070"
     id="path1"
     style="stroke-width:1.03292;fill:#707070" />
</svg>
