<?xml version="1.0" encoding="UTF-8" standalone="no"?>
<svg
   width="16"
   height="16"
   version="1.1"
   id="svg2"
   sodipodi:docname="folder-locked-symbolic.svg"
   inkscape:version="1.3.2 (091e20e, 2023-11-25)"
   xmlns:inkscape="http://www.inkscape.org/namespaces/inkscape"
   xmlns:sodipodi="http://sodipodi.sourceforge.net/DTD/sodipodi-0.dtd"
   xmlns="http://www.w3.org/2000/svg"
   xmlns:svg="http://www.w3.org/2000/svg">
  <sodipodi:namedview
     id="namedview2"
     pagecolor="#ffffff"
     bordercolor="#000000"
     borderopacity="0.25"
     inkscape:showpageshadow="2"
     inkscape:pageopacity="0.0"
     inkscape:pagecheckerboard="0"
     inkscape:deskcolor="#d1d1d1"
     inkscape:zoom="37.625"
     inkscape:cx="7.986711"
     inkscape:cy="7.0697674"
     inkscape:window-width="1408"
     inkscape:window-height="747"
     inkscape:window-x="0"
     inkscape:window-y="25"
     inkscape:window-maximized="0"
     inkscape:current-layer="svg2" />
  <defs
     id="defs1">
    <style
       id="current-color-scheme"
       type="text/css">.ColorScheme-Text { color:#707070; }</style>
  </defs>
  <path
     d="m 8,0.5 c -2.216,0 -4,1.784 -4,4 v 2 h 1 v -2 c 0,-1.662 1.338,-3 3,-3 1.662,0 3,1.338 3,3 v 2 h 1 v -2 c 0,-2.216 -1.784,-4 -4,-4 z"
     style="fill:currentColor"
     class="ColorScheme-Text"
     id="path1" />
  <path
     d="m 4,6.5 c -1.108,0 -2,0.892 -2,2 v 5 c 0,1.108 0.892,2 2,2 h 8 c 1.108,0 2,-0.892 2,-2 v -5 c 0,-1.108 -0.892,-2 -2,-2 z m 0,1 h 8 c 0.554,0 1,0.446 1,1 v 5 c 0,0.554 -0.446,1 -1,1 H 4 c -0.554,0 -1,-0.446 -1,-1 v -5 c 0,-0.554 0.446,-1 1,-1 z"
     style="display:inline;fill:currentColor"
     class="ColorScheme-Text"
     id="path2" />
</svg>
