<?xml version="1.0" encoding="UTF-8" standalone="no"?>
<svg
   width="18"
   height="18"
   version="1.1"
   id="svg1"
   sodipodi:docname="mail-unread-symbolic.svg"
   inkscape:version="1.3 (0e150ed, 2023-07-21)"
   xmlns:inkscape="http://www.inkscape.org/namespaces/inkscape"
   xmlns:sodipodi="http://sodipodi.sourceforge.net/DTD/sodipodi-0.dtd"
   xmlns="http://www.w3.org/2000/svg"
   xmlns:svg="http://www.w3.org/2000/svg">
  <defs
     id="defs1" />
  <sodipodi:namedview
     id="namedview1"
     pagecolor="#ffffff"
     bordercolor="#000000"
     borderopacity="0.25"
     inkscape:showpageshadow="2"
     inkscape:pageopacity="0.0"
     inkscape:pagecheckerboard="0"
     inkscape:deskcolor="#d1d1d1"
     showgrid="true"
     inkscape:zoom="37.625"
     inkscape:cx="8"
     inkscape:cy="9.3289037"
     inkscape:window-width="1408"
     inkscape:window-height="747"
     inkscape:window-x="308"
     inkscape:window-y="25"
     inkscape:window-maximized="0"
     inkscape:current-layer="svg1">
    <inkscape:grid
       id="grid1"
       units="px"
       originx="0"
       originy="0"
       spacingx="1"
       spacingy="1"
       empcolor="#0099e5"
       empopacity="0.30196078"
       color="#0099e5"
       opacity="0.14901961"
       empspacing="5"
       dotted="false"
       gridanglex="30"
       gridanglez="30"
       visible="true" />
  </sodipodi:namedview>
  <path
     class="ColorScheme-Text"
     d="m 2.8066861,2.7973422 c -1.142625,0 -2.06250006,0.9291667 -2.06250006,2.0833333 v 8.3333335 c 0,1.154166 0.91987506,2.083333 2.06250006,2.083333 H 15.181686 c 1.142625,0 2.0625,-0.929167 2.0625,-2.083333 V 4.8806755 c 0,-1.1541666 -0.919875,-2.0833333 -2.0625,-2.0833333 z m 0,1.0416667 H 15.181686 c 0.504158,0 0.901808,0.3688125 0.99298,0.850427 L 9.5501227,10.017769 c -0.3151397,0.25349 -0.7966819,0.25349 -1.1117907,0 L 1.8137883,4.6894359 C 1.904957,4.2078214 2.3026111,3.8390089 2.8067686,3.8390089 Z M 1.7754361,5.9731755 5.5963205,9.0473422 1.7754361,12.121509 V 5.9732797 Z m 14.4374999,0 V 12.121405 L 12.392052,9.047238 16.212936,5.9730714 Z M 6.4139986,9.7065089 7.620458,10.676967 c 0.7537097,0.60626 1.9936125,0.60626 2.747353,0 l 1.206459,-0.9704581 4.600303,3.6987501 c -0.09117,0.481614 -0.488822,0.850427 -0.99298,0.850427 H 2.8065933 c -0.5041575,0 -0.9018075,-0.368813 -0.9929803,-0.850427 L 6.4139161,9.7065089 Z"
     color="#707070"
     fill="currentColor"
     id="path1"
     style="stroke-width:1.03644;fill:#707070" />
</svg>
