<?xml version="1.0" encoding="UTF-8" standalone="no"?>
<svg
   width="17"
   height="17"
   fill="context-fill"
   fill-opacity="context-fill-opacity"
   version="1.1"
   viewBox="0 0 17 17"
   id="svg1"
   sodipodi:docname="picture-in-picture-open.svg"
   inkscape:version="1.3 (0e150ed, 2023-07-21)"
   xmlns:inkscape="http://www.inkscape.org/namespaces/inkscape"
   xmlns:sodipodi="http://sodipodi.sourceforge.net/DTD/sodipodi-0.dtd"
   xmlns="http://www.w3.org/2000/svg"
   xmlns:svg="http://www.w3.org/2000/svg">
  <defs
     id="defs1" />
  <sodipodi:namedview
     id="namedview1"
     pagecolor="#ffffff"
     bordercolor="#000000"
     borderopacity="0.25"
     inkscape:showpageshadow="2"
     inkscape:pageopacity="0.0"
     inkscape:pagecheckerboard="0"
     inkscape:deskcolor="#d1d1d1"
     showgrid="true"
     inkscape:zoom="37.625"
     inkscape:cx="8"
     inkscape:cy="10.099668"
     inkscape:window-width="1408"
     inkscape:window-height="747"
     inkscape:window-x="308"
     inkscape:window-y="25"
     inkscape:window-maximized="0"
     inkscape:current-layer="svg1">
    <inkscape:grid
       id="grid1"
       units="px"
       originx="0"
       originy="0"
       spacingx="1"
       spacingy="1"
       empcolor="#0099e5"
       empopacity="0.30196078"
       color="#0099e5"
       opacity="0.14901961"
       empspacing="5"
       dotted="false"
       gridanglex="30"
       gridanglez="30"
       visible="true" />
  </sodipodi:namedview>
  <path
     d="m 3.9833887,0.9833887 c -1.662,0 -3,1.338 -3,3 v 8.0000003 c 0,1.662 1.338,3 3,3 h 6 v -1 h -6 c -1.108,0 -2,-0.892 -2,-2 V 3.9833887 c 0,-1.108 0.892,-2 2,-2 h 8.0000003 c 1.108,0 2,0.892 2,2 v 6 h 1 v -6 c 0,-1.662 -1.338,-3 -3,-3 z m 0.75781,3.0508 -0.70703,0.70703 4.2422,4.2422 h -1.293 v 1 h 2 1 v -1 -2 h -1 v 1.293 l -4.2422,-4.2422 z m 8.2422003,6.9492003 c -1.108,0 -2,0.892 -2,2 v 2 c 0,1.108 0.892,2 2,2 h 2 c 1.108,0 2,-0.892 2,-2 v -2 c 0,-1.108 -0.892,-2 -2,-2 z m 0,1 h 2 c 0.554,0 1,0.446 1,1 v 2 c 0,0.554 -0.446,1 -1,1 h -2 c -0.554,0 -1,-0.446 -1,-1 v -2 c 0,-0.554 0.446,-1 1,-1 z"
     fill="#707070"
     id="path1" />
</svg>
