<?xml version="1.0" encoding="UTF-8" standalone="no"?>
<svg
   width="18"
   height="18"
   version="1.1"
   id="svg2169"
   sodipodi:docname="save-to-pocket-open.svg"
   inkscape:version="1.3.2 (091e20e, 2023-11-25)"
   xmlns:inkscape="http://www.inkscape.org/namespaces/inkscape"
   xmlns:sodipodi="http://sodipodi.sourceforge.net/DTD/sodipodi-0.dtd"
   xmlns="http://www.w3.org/2000/svg"
   xmlns:svg="http://www.w3.org/2000/svg">
  <sodipodi:namedview
     id="namedview2171"
     pagecolor="#ffffff"
     bordercolor="#666666"
     borderopacity="1.0"
     inkscape:showpageshadow="2"
     inkscape:pageopacity="0.0"
     inkscape:pagecheckerboard="0"
     inkscape:deskcolor="#d1d1d1"
     showgrid="true"
     inkscape:zoom="29.5"
     inkscape:cx="5.0677966"
     inkscape:cy="9.0847458"
     inkscape:window-width="1408"
     inkscape:window-height="747"
     inkscape:window-x="0"
     inkscape:window-y="25"
     inkscape:window-maximized="0"
     inkscape:current-layer="svg2169">
    <inkscape:grid
       type="xygrid"
       id="grid234"
       originx="0"
       originy="0"
       spacingy="1"
       spacingx="1"
       units="px"
       visible="true" />
  </sodipodi:namedview>
  <defs
     id="defs2165">
    <style
       id="current-color-scheme"
       type="text/css">.ColorScheme-Text { color:#707070; }</style>
  </defs>
  <path
     id="path2167"
     d="M 3.2857143,1 C 2.0194298,1 1,2.0194298 1,3.2857143 V 9 c 0,4.418273 3.5817265,8 8,8 4.418273,0 8,-3.581727 8,-8 V 3.2857143 C 17,2.0194298 15.98057,1 14.714286,1 Z m 0.8660714,4.5290178 c 0.1460685,0 0.2920934,0.05772 0.4040178,0.1696429 L 9,10.142857 13.444197,5.6986607 c 0.223851,-0.2238512 0.584184,-0.2238512 0.808036,0 0.22385,0.2238512 0.22385,0.5841846 0,0.8080358 L 9.4040178,11.35491 c -0.2238512,0.223852 -0.5841844,0.223852 -0.8080356,0 L 3.7477679,6.5066965 c -0.2238512,-0.2238512 -0.2238512,-0.5841846 0,-0.8080358 0.1119314,-0.111928 0.2579494,-0.1696429 0.4040178,-0.1696429 z"
     style="fill:#707070;stroke-width:1.14285"
     sodipodi:nodetypes="ssssssssssccscccscs" />
</svg>
