<?xml version="1.0" encoding="UTF-8" standalone="no"?>
<svg
   width="18"
   height="18"
   version="1.1"
   id="svg2"
   sodipodi:docname="tab-new-symbolic.svg"
   inkscape:version="1.3.2 (091e20e, 2023-11-25)"
   xmlns:inkscape="http://www.inkscape.org/namespaces/inkscape"
   xmlns:sodipodi="http://sodipodi.sourceforge.net/DTD/sodipodi-0.dtd"
   xmlns="http://www.w3.org/2000/svg"
   xmlns:svg="http://www.w3.org/2000/svg">
  <defs
     id="defs2">
    <clipPath
       clipPathUnits="userSpaceOnUse"
       id="clipPath7">
      <path
         d="M 0,0 H 28 V 60 H 0 Z"
         id="path7" />
    </clipPath>
    <clipPath
       clipPathUnits="userSpaceOnUse"
       id="clipPath5">
      <path
         d="M 0,0 H 28 V 60 H 0 Z"
         id="path5" />
    </clipPath>
  </defs>
  <sodipodi:namedview
     id="namedview2"
     pagecolor="#ffffff"
     bordercolor="#000000"
     borderopacity="0.25"
     inkscape:showpageshadow="2"
     inkscape:pageopacity="0.0"
     inkscape:pagecheckerboard="0"
     inkscape:deskcolor="#d1d1d1"
     showgrid="true"
     inkscape:zoom="37.625"
     inkscape:cx="8.8903654"
     inkscape:cy="6.9634551"
     inkscape:window-width="1408"
     inkscape:window-height="747"
     inkscape:window-x="233"
     inkscape:window-y="25"
     inkscape:window-maximized="0"
     inkscape:current-layer="svg2">
    <inkscape:grid
       id="grid2"
       units="px"
       originx="0"
       originy="0"
       spacingx="1"
       spacingy="1"
       empcolor="#0099e5"
       empopacity="0.30196078"
       color="#0099e5"
       opacity="0.14901961"
       empspacing="5"
       dotted="false"
       gridanglex="30"
       gridanglez="30"
       visible="true" />
  </sodipodi:namedview>
  <path
     id="path6"
     d="m 28,29 c 0,-0.552 -0.448,-1 -1,-1 H 1 c -0.552,0 -1,0.448 -1,1 v 2 c 0,0.552 0.448,1 1,1 h 26 c 0.552,0 1,-0.448 1,-1 z"
     style="fill:#707070;fill-opacity:1;fill-rule:nonzero;stroke:none"
     transform="matrix(0.53314345,0,0,-0.47619044,1.7740864,23.700094)"
     clip-path="url(#clipPath7)" />
  <path
     id="path4"
     d="m 15,16 h -2 c -0.552,0 -1,0.448 -1,1 v 26 c 0,0.552 0.448,1 1,1 h 2 c 0.552,0 1,-0.448 1,-1 V 17 c 0,-0.552 -0.448,-1 -1,-1"
     style="fill:#707070;fill-opacity:1;fill-rule:nonzero;stroke:none"
     transform="matrix(0.44961236,0,0,-0.52601246,3.076412,24.981758)"
     clip-path="url(#clipPath5)" />
</svg>
