<?xml version="1.0" encoding="UTF-8" standalone="no"?>
<!-- Created with Inkscape (http://www.inkscape.org/) -->

<svg
   width="16"
   height="16"
   id="svg4428"
   version="1.1"
   inkscape:version="1.3.2 (091e20e, 2023-11-25, custom)"
   sodipodi:docname="mac-close.svg"
   xmlns:inkscape="http://www.inkscape.org/namespaces/inkscape"
   xmlns:sodipodi="http://sodipodi.sourceforge.net/DTD/sodipodi-0.dtd"
   xmlns="http://www.w3.org/2000/svg"
   xmlns:svg="http://www.w3.org/2000/svg"
   xmlns:rdf="http://www.w3.org/1999/02/22-rdf-syntax-ns#"
   xmlns:cc="http://creativecommons.org/ns#"
   xmlns:dc="http://purl.org/dc/elements/1.1/">
  <defs
     id="defs4430" />
  <sodipodi:namedview
     id="base"
     pagecolor="#eff0f1"
     bordercolor="#666666"
     borderopacity="1.0"
     inkscape:pageopacity="1"
     inkscape:pageshadow="2"
     inkscape:zoom="3.018566"
     inkscape:cx="-12.091834"
     inkscape:cy="33.79088"
     inkscape:document-units="px"
     inkscape:current-layer="layer1"
     showgrid="true"
     inkscape:snap-bbox="true"
     inkscape:window-width="1920"
     inkscape:window-height="730"
     inkscape:window-x="-6"
     inkscape:window-y="-6"
     inkscape:window-maximized="1"
     showborder="true"
     inkscape:showpageshadow="false"
     inkscape:snap-nodes="false"
     inkscape:bbox-nodes="true"
     inkscape:snap-bbox-edge-midpoints="false"
     inkscape:snap-global="false"
     inkscape:pagecheckerboard="0"
     inkscape:deskcolor="#d1d1d1">
    <inkscape:grid
       type="xygrid"
       id="grid4436"
       empspacing="5"
       visible="true"
       enabled="true"
       snapvisiblegridlinesonly="true"
       originx="0"
       originy="0"
       spacingx="1.0666667"
       spacingy="1.0666667"
       units="px" />
  </sodipodi:namedview>
  <metadata
     id="metadata4433">
    <rdf:RDF>
      <cc:Work
         rdf:about="">
        <dc:format>image/svg+xml</dc:format>
        <dc:type
           rdf:resource="http://purl.org/dc/dcmitype/StillImage" />
      </cc:Work>
    </rdf:RDF>
  </metadata>
  <g
     inkscape:label="Layer 1"
     inkscape:groupmode="layer"
     id="layer1"
     transform="translate(0,-1098.5197)">
    <g
       id="4"
       inkscape:label="#g3842"
       transform="translate(86.4,-3.2)" />
    <g
       transform="matrix(1.121875,0,0,1.121875,-329.67937,1311.4215)"
       style="display:inline"
       id="pressed-center"
       inkscape:label="#pressed-center">
      <rect
         style="opacity:0;fill:#000000;fill-opacity:1;stroke:none;stroke-width:0.474321;stroke-linejoin:miter;stroke-miterlimit:4;stroke-dasharray:none;stroke-opacity:1;paint-order:markers stroke fill"
         id="rect1586-93"
         width="16"
         height="16"
         x="293"
         y="-190.63782"
         ry="1.6930764e-05" />
      <g
         inkscape:label="#g853"
         transform="translate(294,-189.63782)"
         id="titlebutton-close-active-1-1"
         style="enable-background:new">
        <g
           transform="translate(-4.9999997,-1033.3622)"
           id="g6-3-9">
          <path
             style="fill:#cb4e43;fill-opacity:1;fill-rule:evenodd;stroke:none"
             d="m 12.000061,1047.3622 c 3.865929,0 6.999939,-3.134 6.999939,-7 0,-3.866 -3.13401,-7 -6.999939,-7 -3.8660427,0 -7.0000616,3.134 -7.0000616,7 0,3.866 3.1340189,7 7.0000616,7"
             id="path2-6-4"
             inkscape:connector-curvature="0" />
          <path
             style="opacity:0.5;fill:#000000;fill-opacity:1;stroke:none;stroke-width:2;stroke-linecap:round;stroke-linejoin:round;stroke-miterlimit:4;stroke-dasharray:none;stroke-opacity:1;enable-background:new"
             d="m 9.1715729,1037.5338 c -0.3917372,0.3917 -0.3917372,1.0224 0,1.4142 l 1.4142131,1.4142 -1.4142131,1.4142 c -0.3917372,0.3918 -0.3917372,1.0225 0,1.4142 0.3917371,0.3918 1.0224761,0.3918 1.4142131,0 L 12,1041.7764 l 1.414214,1.4142 c 0.391737,0.3918 1.022476,0.3918 1.414213,0 0.391737,-0.3917 0.391737,-1.0224 0,-1.4142 l -1.414213,-1.4142 1.414213,-1.4142 c 0.391737,-0.3918 0.391737,-1.0225 0,-1.4142 -0.391737,-0.3918 -1.022476,-0.3918 -1.414213,0 L 12,1038.948 l -1.414214,-1.4142 c -0.391737,-0.3918 -1.022476,-0.3918 -1.4142131,0 z"
             id="path4-7-7"
             inkscape:connector-curvature="0" />
        </g>
      </g>
    </g>
  </g>
</svg>
