<?xml version="1.0" encoding="UTF-8" standalone="no"?>
<!DOCTYPE svg PUBLIC "-//W3C//DTD SVG 1.1//EN" "http://www.w3.org/Graphics/SVG/1.1/DTD/svg11.dtd">
<!-- Created with Vectornator (http://vectornator.io/) -->
<svg height="100%" stroke-miterlimit="10" style="fill-rule:nonzero;clip-rule:evenodd;stroke-linecap:round;stroke-linejoin:round;" version="1.1" viewBox="0 0 206.67 50.2965" width="100%" xml:space="preserve" xmlns="http://www.w3.org/2000/svg" xmlns:vectornator="http://vectornator.io" xmlns:xlink="http://www.w3.org/1999/xlink">
<defs>
<linearGradient gradientTransform="matrix(215.503 -5.41856e-15 1.47673e-16 215.503 -4.41676 19.3631)" gradientUnits="userSpaceOnUse" id="LinearGradient" x1="0" x2="1" y1="0" y2="0">
<stop offset="0" stop-color="#ffb344" stop-opacity="0.74548"/>
<stop offset="1" stop-color="#ff3b42" stop-opacity="0.749376"/>
</linearGradient>
</defs>
<g id="Katman-1" vectornator:layerName="Katman 1">
<g fill="url(#LinearGradient)" opacity="1" stroke="#000000" stroke-linecap="butt" stroke-linejoin="round" stroke-opacity="0.0972358" stroke-width="1" vectornator:layerName="Metin 1">
<path d="M21.4512 46.6941L1.88089 46.7214L1.82068 3.53782L22.7972 3.50857C28.0903 3.57932 31.8424 5.10729 34.0536 8.09249C35.3843 9.92657 36.0514 12.1229 36.055 14.6815C36.0587 17.3182 35.3976 19.4383 34.0717 21.0417C33.3307 21.9412 32.2381 22.763 30.7939 23.5072C33.002 24.3049 34.6688 25.5721 35.7943 27.3088C36.9198 29.0455 37.4842 31.1541 37.4877 33.6346C37.4912 36.1932 36.8499 38.489 35.5637 40.5221C34.7453 41.8709 33.7214 43.0051 32.4923 43.9248C31.107 44.9814 29.4723 45.7063 27.5881 46.0996C25.7038 46.4928 23.6582 46.691 21.4512 46.6941ZM21.2196 27.6807L10.4677 27.6957L10.4837 39.2094L21.0892 39.1946C22.9837 39.1919 24.4579 38.936 25.5119 38.4267C27.4247 37.4865 28.3792 35.6883 28.3755 33.0321C28.3724 30.786 27.4425 29.2443 25.5858 28.4071C24.55 27.9397 23.0946 27.6976 21.2196 27.6807ZM25.6905 19.4421C26.8614 18.7373 27.4456 17.4767 27.4431 15.6603C27.4403 13.6486 26.6572 12.3216 25.0938 11.6792C23.7455 11.2319 22.0264 11.0097 19.9366 11.0126L10.4444 11.0258L10.4577 20.5473L21.0631 20.5325C22.9577 20.5298 24.5001 20.1664 25.6905 19.4421Z"/>
<path d="M44.5062 3.4783L52.8558 3.46666L52.916 46.6502L44.5664 46.6619L44.5062 3.4783Z"/>
<path d="M81.5327 42.0986C81.4547 42.1964 81.2598 42.4896 80.948 42.9783C80.6362 43.467 80.2657 43.8972 79.8365 44.2689C78.5296 45.4426 77.266 46.2452 76.0459 46.6766C74.8258 47.1079 73.3955 47.3248 71.7549 47.3271C67.0283 47.3337 63.8423 45.6389 62.197 42.2427C61.2764 40.369 60.8136 37.606 60.8085 33.9537L60.7816 14.7056L69.3363 14.6937L69.3631 33.9417C69.3657 35.7581 69.5824 37.125 70.0134 38.0424C70.7774 39.6624 72.2726 40.4709 74.4992 40.4678C77.3508 40.4638 79.3023 39.3087 80.3537 37.0026C80.8989 35.7518 81.17 34.101 81.1672 32.0503L81.1429 14.6772L89.6097 14.6654L89.6542 46.599L81.539 46.6103L81.5327 42.0986Z"/>
<path d="M113.732 22.3369C110.372 22.3416 108.118 23.4385 106.969 25.6276C106.326 26.8589 106.006 28.7539 106.01 31.3125L106.031 46.5762L97.623 46.5879L97.5785 14.6543L105.547 14.6432L105.555 20.2096C106.841 18.0789 107.962 16.6223 108.918 15.8397C110.479 14.5289 112.509 13.8718 115.009 13.8683C115.165 13.8681 115.297 13.8728 115.405 13.8824C115.512 13.892 115.751 13.9063 116.122 13.9253L116.134 22.48C115.607 22.4222 115.138 22.3838 114.728 22.3648C114.318 22.3458 113.986 22.3365 113.732 22.3369Z"/>
<path d="M135.971 3.08711L135.98 9.88398C135.511 9.82604 134.725 9.78319 133.621 9.75543C132.518 9.72767 131.757 9.97288 131.337 10.491C130.918 11.0092 130.709 11.5808 130.71 12.2058L130.714 14.9011L136.192 14.8935L136.2 20.7821L130.722 20.7898L130.758 46.5417L122.437 46.5533L122.402 20.8014L117.743 20.8079L117.735 14.9192L122.305 14.9128L122.303 12.862C122.298 9.44407 122.871 7.08975 124.021 5.79909C125.229 3.88334 128.148 2.92224 132.777 2.91578C133.304 2.91505 133.783 2.92903 134.213 2.95773C134.642 2.98642 135.228 3.02955 135.971 3.08711Z"/>
<path d="M167.633 18.5996C170.333 21.9748 171.686 25.967 171.693 30.5764C171.699 35.2639 170.357 39.2746 167.666 42.6084C164.976 45.9422 160.886 47.613 155.398 47.6206C149.91 47.6283 145.816 45.9689 143.116 42.6426C140.416 39.3163 139.062 35.3094 139.056 30.6219C139.049 26.0125 140.392 22.0165 143.082 18.6339C145.773 15.2512 149.862 13.556 155.35 13.5484C160.839 13.5407 164.933 15.2245 167.633 18.5996ZM155.331 20.609C152.89 20.6124 151.011 21.4792 149.695 23.2096C148.379 24.94 147.723 27.4067 147.728 30.6098C147.732 33.8129 148.395 36.2827 149.716 38.0192C151.036 39.7556 152.917 40.6221 155.359 40.6187C157.8 40.6153 159.674 39.7436 160.98 38.0034C162.286 36.2633 162.937 33.7917 162.933 30.5886C162.928 27.3855 162.271 24.9206 160.96 23.1939C159.649 21.4672 157.772 20.6056 155.331 20.609Z"/>
<path d="M206.139 46.4366L195.738 46.4511L190.217 36.8787L184.693 46.4665L174.557 46.4806L185.432 30.2936L174.981 14.605L185.205 14.5907L190.55 23.8411L195.752 14.576L205.684 14.5622L195.217 30.1334L206.139 46.4366Z"/>
</g>
</g>
</svg>
