<?xml version="1.0" encoding="UTF-8" standalone="no"?>
<svg
   width="18"
   height="18"
   version="1.1"
   viewBox="0 0 18 18"
   id="svg1"
   sodipodi:docname="application-x-addon-symbolic.svg"
   inkscape:version="1.3.2 (091e20e, 2023-11-25)"
   xmlns:inkscape="http://www.inkscape.org/namespaces/inkscape"
   xmlns:sodipodi="http://sodipodi.sourceforge.net/DTD/sodipodi-0.dtd"
   xmlns="http://www.w3.org/2000/svg"
   xmlns:svg="http://www.w3.org/2000/svg"
   xmlns:rdf="http://www.w3.org/1999/02/22-rdf-syntax-ns#"
   xmlns:cc="http://creativecommons.org/ns#"
   xmlns:dc="http://purl.org/dc/elements/1.1/">
  <sodipodi:namedview
     id="namedview1"
     pagecolor="#ffffff"
     bordercolor="#000000"
     borderopacity="0.25"
     inkscape:showpageshadow="2"
     inkscape:pageopacity="0.0"
     inkscape:pagecheckerboard="0"
     inkscape:deskcolor="#d1d1d1"
     showgrid="true"
     inkscape:zoom="37.625"
     inkscape:cx="7.986711"
     inkscape:cy="6.8571429"
     inkscape:window-width="1408"
     inkscape:window-height="747"
     inkscape:window-x="184"
     inkscape:window-y="25"
     inkscape:window-maximized="0"
     inkscape:current-layer="svg1">
    <inkscape:grid
       id="grid1"
       units="px"
       originx="0"
       originy="0"
       spacingx="1"
       spacingy="1"
       empcolor="#0099e5"
       empopacity="0.30196078"
       color="#0099e5"
       opacity="0.14902"
       empspacing="5"
       dotted="false"
       gridanglex="30"
       gridanglez="30"
       visible="true" />
  </sodipodi:namedview>
  <metadata
     id="metadata1">
    <rdf:RDF>
      <cc:Work
         rdf:about="">
        <dc:format>image/svg+xml</dc:format>
        <dc:type
           rdf:resource="http://purl.org/dc/dcmitype/StillImage" />
      </cc:Work>
    </rdf:RDF>
  </metadata>
  <defs
     id="defs1">
    <style
       id="current-color-scheme"
       type="text/css">.ColorScheme-Text { color:#6e6e6e; } .ColorScheme-Highlight { color:#5294e2; }</style>
  </defs>
  <path
     d="M 7.2999999,0.5 C 6.0442666,0.5 5.0333331,1.5109333 5.0333331,2.7666668 v 1.1333334 h -2.44154 C 1.4326198,3.9000002 0.5,4.8326542 0.5,5.9917937 v 2.4415401 1.1333335 h 2.2666666 c 0.6278665,0 1.1333333,0.5054667 1.1333333,1.1333317 0,0.627868 -0.5054668,1.133334 -1.1333333,1.133334 H 0.5 v 1.133334 2.44154 C 0.5,16.56738 1.4326538,17.5 2.5917931,17.5 h 2.44154 1.1333335 v -2.266667 c 0,-0.627866 0.5054665,-1.133333 1.1333333,-1.133333 0.6278667,0 1.1333333,0.505467 1.1333333,1.133333 V 17.5 H 9.5666668 12.008208 C 13.16738,17.5 14.1,16.567346 14.1,15.408207 v -2.44154 h 1.133333 c 1.255735,0 2.266667,-1.010934 2.266667,-2.266668 0,-1.2557317 -1.010932,-2.2666652 -2.266667,-2.2666652 H 14.1 V 5.9917937 C 14.1,4.8326202 13.167346,3.9000002 12.008208,3.9000002 H 9.5666668 V 2.7666668 C 9.5666668,1.5109333 8.5557332,0.5 7.2999999,0.5 Z m 0,1.1333333 c 0.6278667,0 1.1333333,0.5054667 1.1333333,1.1333335 v 2.2666668 h 1.1333336 2.2666652 c 0.627868,0 1.133336,0.5054666 1.133336,1.1333334 v 2.2666668 1.1333335 h 2.266665 c 0.627867,0 1.133335,0.5054667 1.133335,1.1333317 0,0.627868 -0.505468,1.133334 -1.133335,1.133334 h -2.266665 v 1.133334 2.266666 c 0,0.627867 -0.505468,1.133334 -1.133336,1.133334 H 9.5666668 v -1.133334 c 0,-1.255733 -1.0109336,-2.266666 -2.2666669,-2.266666 -1.2557333,0 -2.2666668,1.010933 -2.2666668,2.266666 v 1.133334 H 2.7666666 c -0.6278668,0 -1.1333336,-0.505467 -1.1333336,-1.133334 v -2.266666 h 1.1333336 c 1.2557333,0 2.2666665,-1.010934 2.2666665,-2.266668 0,-1.2557317 -1.0109332,-2.2666652 -2.2666665,-2.2666652 H 1.633333 V 6.166667 c 0,-0.6278668 0.5054668,-1.1333334 1.1333336,-1.1333334 H 5.0333331 6.1666666 V 2.7666668 c 0,-0.6278668 0.5054665,-1.1333335 1.1333333,-1.1333335 z"
     fill="#707070"
     id="path1"
     style="fill:#707070;stroke-width:0.1;stroke:#707070;stroke-opacity:1;stroke-dasharray:none" />
</svg>
