<?xml version="1.0" encoding="UTF-8" standalone="no"?>
<svg
   width="16"
   height="16"
   enable-background="new"
   version="1.1"
   id="svg1"
   sodipodi:docname="blocked-permission-symbolic.svg"
   inkscape:version="1.3.2 (091e20e, 2023-11-25)"
   xmlns:inkscape="http://www.inkscape.org/namespaces/inkscape"
   xmlns:sodipodi="http://sodipodi.sourceforge.net/DTD/sodipodi-0.dtd"
   xmlns="http://www.w3.org/2000/svg"
   xmlns:svg="http://www.w3.org/2000/svg">
  <defs
     id="defs1" />
  <sodipodi:namedview
     id="namedview1"
     pagecolor="#ffffff"
     bordercolor="#000000"
     borderopacity="0.25"
     inkscape:showpageshadow="2"
     inkscape:pageopacity="0.0"
     inkscape:pagecheckerboard="0"
     inkscape:deskcolor="#d1d1d1"
     inkscape:zoom="32.749458"
     inkscape:cx="8.0153998"
     inkscape:cy="8.4276204"
     inkscape:window-width="1408"
     inkscape:window-height="747"
     inkscape:window-x="148"
     inkscape:window-y="30"
     inkscape:window-maximized="0"
     inkscape:current-layer="svg1" />
  <path
     class="ColorScheme-Text"
     d="M 3,1 C 1.892,1 1,1.892 1,3 v 10 c 0,1.108 0.892,2 2,2 H 8.7617 A 4.5,4.5 0 0 1 8.26365,14 h -5.2637 c -0.554,0 -1,-0.446 -1,-1 V 5 c 0,-0.554 0.446,-1 1,-1 h 10 c 0.554,0 1,0.446 1,1 v 3.2637 a 4.5,4.5 0 0 1 1,0.49609 v -5.7598 c 0,-1.108 -0.892,-2 -2,-2 h -10 z"
     fill="currentColor"
     id="path1"
     style="color:#707070" />
  <path
     class="ColorScheme-Text"
     d="m 14.944465,9.9944651 c -1.3668,-1.3668 -3.5829,-1.3668 -4.9496999,0 -1.3668,1.3667999 -1.3668,3.5828999 0,4.9496999 1.3667999,1.3668 3.5828999,1.3668 4.9496999,0 1.3668,-1.3668 1.3668,-3.5829 0,-4.9496999 z m -1.0607,0.3535499 0.70711,0.70711 -1.4142,1.4142 1.4142,1.4142 -0.70711,0.70711 -1.4142,-1.4142 -1.4142,1.4142 -0.70711,-0.70711 1.4142,-1.4142 -1.4142,-1.4142 0.70711,-0.70711 1.4142,1.4142 z"
     fill="#ff8080"
     id="path2-8"
     style="color:#707070" />
</svg>
