<?xml version="1.0" encoding="UTF-8" standalone="no"?>
<!-- This Source Code Form is subject to the terms of the Mozilla Public
   - License, v. 2.0. If a copy of the MPL was not distributed with this
   - file, You can obtain one at http://mozilla.org/MPL/2.0/. -->

<svg
   viewBox="0 0 18 18"
   width="18"
   height="18"
   fill="#333333"
   fill-opacity="context-fill-opacity"
   version="1.1"
   id="svg2"
   sodipodi:docname="downloads.svg"
   inkscape:version="1.3.2 (091e20e, 2023-11-25)"
   xmlns:inkscape="http://www.inkscape.org/namespaces/inkscape"
   xmlns:sodipodi="http://sodipodi.sourceforge.net/DTD/sodipodi-0.dtd"
   xmlns="http://www.w3.org/2000/svg"
   xmlns:svg="http://www.w3.org/2000/svg">
  <defs
     id="defs2" />
  <sodipodi:namedview
     id="namedview2"
     pagecolor="#ffffff"
     bordercolor="#000000"
     borderopacity="0.25"
     inkscape:showpageshadow="2"
     inkscape:pageopacity="0.0"
     inkscape:pagecheckerboard="0"
     inkscape:deskcolor="#d1d1d1"
     showgrid="true"
     inkscape:zoom="37.625"
     inkscape:cx="7.986711"
     inkscape:cy="6.9634551"
     inkscape:window-width="1408"
     inkscape:window-height="747"
     inkscape:window-x="0"
     inkscape:window-y="25"
     inkscape:window-maximized="0"
     inkscape:current-layer="svg2">
    <inkscape:grid
       id="grid2"
       units="px"
       originx="0"
       originy="0"
       spacingx="1"
       spacingy="1"
       empcolor="#0099e5"
       empopacity="0.30196078"
       color="#0099e5"
       opacity="0.14901961"
       empspacing="5"
       dotted="false"
       gridanglex="30"
       gridanglez="30"
       visible="true" />
  </sodipodi:namedview>
  <path
     id="path2"
     style="fill:#707070;stroke-width:1.1421"
     d="M 14.348114,17.499666 A 2.3018868,2.2666668 0 0 0 16.65,15.232999 v -1.558333 a 0.71933984,0.70833357 0 0 0 -1.438679,0 v 1.728333 l -0.690566,0.68 H 3.5292454 l -0.6905661,-0.68 v -1.728333 a 0.71933965,0.70833338 0 0 0 -1.4386793,0 v 1.558333 a 2.3018868,2.2666668 0 0 0 2.3018868,2.266667 z M 9.7443397,1.2079993 a 0.71933968,0.70833341 0 0 0 -1.4386792,0 V 10.640733 L 4.4983397,6.890533 A 0.72049059,0.70946671 0 0 0 3.4797548,7.8935331 L 8.6336795,12.966333 H 9.4174719 L 14.570246,7.8935331 A 0.72049059,0.70946671 0 0 0 13.55166,6.890533 l -3.8073203,3.749066 z" />
</svg>
