<?xml version="1.0" encoding="UTF-8" standalone="no"?>
<svg
   width="16"
   height="16"
   enable-background="new"
   version="1.1"
   id="svg2"
   sodipodi:docname="edit-copy-symbolic.svg"
   inkscape:version="1.3 (0e150ed, 2023-07-21)"
   xmlns:inkscape="http://www.inkscape.org/namespaces/inkscape"
   xmlns:sodipodi="http://sodipodi.sourceforge.net/DTD/sodipodi-0.dtd"
   xmlns="http://www.w3.org/2000/svg"
   xmlns:svg="http://www.w3.org/2000/svg">
  <defs
     id="defs2" />
  <sodipodi:namedview
     id="namedview2"
     pagecolor="#ffffff"
     bordercolor="#000000"
     borderopacity="0.25"
     inkscape:showpageshadow="2"
     inkscape:pageopacity="0.0"
     inkscape:pagecheckerboard="0"
     inkscape:deskcolor="#d1d1d1"
     showgrid="true"
     inkscape:zoom="37.625"
     inkscape:cx="8"
     inkscape:cy="6.6710963"
     inkscape:window-width="1408"
     inkscape:window-height="747"
     inkscape:window-x="308"
     inkscape:window-y="25"
     inkscape:window-maximized="0"
     inkscape:current-layer="svg2">
    <inkscape:grid
       id="grid2"
       units="px"
       originx="0"
       originy="0"
       spacingx="1"
       spacingy="1"
       empcolor="#0099e5"
       empopacity="0.30196078"
       color="#0099e5"
       opacity="0.14901961"
       empspacing="5"
       dotted="false"
       gridanglex="30"
       gridanglez="30"
       visible="true" />
  </sodipodi:namedview>
  <path
     d="m 2.717608,0.79734219 c -1.108,0 -2.00000003,0.89200001 -2.00000003,2.00000001 v 7.9999998 c 0,1.108 0.89200003,2 2.00000003,2 h 7 c 1.108,0 2,-0.892 2,-2 V 2.7973422 c 0,-1.108 -0.892,-2.00000001 -2,-2.00000001 z m 0,1.00000001 h 7 c 0.554,0 1,0.446 1,1 v 7.9999998 c 0,0.554 -0.446,1 -1,1 h -7 c -0.554,0 -1,-0.446 -1,-1 V 2.7973422 c 0,-0.554 0.446,-1 1,-1 z"
     fill="#707070"
     id="path1" />
  <path
     d="m12 4v1h1c0.554 0 1 0.446 1 1v8c0 0.554-0.446 1-1 1h-7c-0.554 0-1-0.446-1-1v-1h-1v1c0 1.108 0.892 2 2 2h7c1.108 0 2-0.892 2-2v-8c0-1.108-0.892-2-2-2h-1z"
     fill="#707070"
     id="path2" />
</svg>
