<?xml version="1.0" encoding="UTF-8" standalone="no"?>
<svg
   width="18"
   height="18"
   enable-background="new"
   version="1.1"
   id="svg2"
   sodipodi:docname="import-symbolic.svg"
   inkscape:version="1.3 (0e150ed, 2023-07-21)"
   xmlns:inkscape="http://www.inkscape.org/namespaces/inkscape"
   xmlns:sodipodi="http://sodipodi.sourceforge.net/DTD/sodipodi-0.dtd"
   xmlns="http://www.w3.org/2000/svg"
   xmlns:svg="http://www.w3.org/2000/svg">
  <defs
     id="defs2" />
  <sodipodi:namedview
     id="namedview2"
     pagecolor="#ffffff"
     bordercolor="#000000"
     borderopacity="0.25"
     inkscape:showpageshadow="2"
     inkscape:pageopacity="0.0"
     inkscape:pagecheckerboard="0"
     inkscape:deskcolor="#d1d1d1"
     showgrid="true"
     inkscape:zoom="37.625"
     inkscape:cx="8"
     inkscape:cy="10.285714"
     inkscape:window-width="1408"
     inkscape:window-height="747"
     inkscape:window-x="308"
     inkscape:window-y="25"
     inkscape:window-maximized="0"
     inkscape:current-layer="svg2">
    <inkscape:grid
       id="grid2"
       units="px"
       originx="0"
       originy="0"
       spacingx="1"
       spacingy="1"
       empcolor="#0099e5"
       empopacity="0.30196078"
       color="#0099e5"
       opacity="0.14901961"
       empspacing="5"
       dotted="false"
       gridanglex="30"
       gridanglez="30"
       visible="true" />
  </sodipodi:namedview>
  <path
     d="m 14.053156,15.933333 c 1.187143,0 2.142857,-0.951467 2.142857,-2.133334 V 3.1333334 C 16.196013,1.9514667 15.240299,1 14.053156,1 H 5.4817278 C 4.2945849,1 3.3388706,1.9514667 3.3388706,3.1333334 v 6.0583468 a 4.6385358,4.6179201 0 0 1 1.0714286,-0.30208 V 3.1333334 c 0,-0.5909334 0.4778571,-1.0666667 1.0714286,-1.0666667 h 8.5714282 c 0.593572,0 1.071429,0.4757333 1.071429,1.0666667 V 13.799999 c 0,0.590934 -0.477857,1.066667 -1.071429,1.066667 H 9.5414778 a 4.6385358,4.6179201 0 0 1 -0.5085107,1.066667 h 5.0201779 z"
     fill="#707070"
     id="path1"
     style="stroke-width:1.06905;fill:#707070" />
  <path
     d="m 8.6960135,13.266666 a 3.7500001,3.7333334 0 0 1 -3.75,3.733333 3.7500001,3.7333334 0 0 1 -3.7500002,-3.733333 3.7500001,3.7333334 0 0 1 3.7500002,-3.7333325 3.7500001,3.7333334 0 0 1 3.75,3.7333325 z m -1.1634643,0 -2.6785714,-2.666667 -0.7575322,0.754166 1.3853572,1.3792 H 2.267517 v 1.066666 h 3.2142858 l -1.3853572,1.3792 0.7575322,0.754166 2.6785714,-2.666667 z"
     fill="#707070"
     id="path2"
     style="stroke-width:1.06905;fill:#707070" />
</svg>
