<?xml version="1.0" encoding="UTF-8" standalone="no"?>
<svg
   width="18"
   height="18"
   version="1.1"
   id="svg2"
   sodipodi:docname="open-folder-symbolic.svg"
   inkscape:version="1.3 (0e150ed, 2023-07-21)"
   xmlns:inkscape="http://www.inkscape.org/namespaces/inkscape"
   xmlns:sodipodi="http://sodipodi.sourceforge.net/DTD/sodipodi-0.dtd"
   xmlns="http://www.w3.org/2000/svg"
   xmlns:svg="http://www.w3.org/2000/svg">
  <sodipodi:namedview
     id="namedview2"
     pagecolor="#ffffff"
     bordercolor="#000000"
     borderopacity="0.25"
     inkscape:showpageshadow="2"
     inkscape:pageopacity="0.0"
     inkscape:pagecheckerboard="0"
     inkscape:deskcolor="#d1d1d1"
     showgrid="true"
     inkscape:zoom="37.625"
     inkscape:cx="8"
     inkscape:cy="8.6644518"
     inkscape:window-width="1408"
     inkscape:window-height="747"
     inkscape:window-x="308"
     inkscape:window-y="25"
     inkscape:window-maximized="0"
     inkscape:current-layer="svg2">
    <inkscape:grid
       id="grid2"
       units="px"
       originx="0"
       originy="0"
       spacingx="1"
       spacingy="1"
       empcolor="#0099e5"
       empopacity="0.30196078"
       color="#0099e5"
       opacity="0.14901961"
       empspacing="5"
       dotted="false"
       gridanglex="30"
       gridanglez="30"
       visible="true" />
  </sodipodi:namedview>
  <defs
     id="defs1">
    <style
       id="current-color-scheme"
       type="text/css">.ColorScheme-Text {&#10;        color:#707070;&#10;      }</style>
  </defs>
  <path
     class="ColorScheme-Text"
     d="m 2.8066887,2.2126245 c -1.1426264,0 -2.06250262,0.9263077 -2.06250262,2.0769231 v 9.3461534 c 0,1.150616 0.91987622,2.076923 2.06250262,2.076923 H 10.724327 A 4.6406309,4.6730771 0 0 1 9.7796797,14.674163 H 2.8066681 c -0.5713132,0 -1.0312513,-0.463154 -1.0312513,-1.038462 V 7.4049324 H 16.212935 v 0.7889919 a 4.6406309,4.6730771 0 0 1 1.031251,0.9492162 V 5.3280404 c 0,-1.1506155 -0.919876,-2.0769232 -2.062502,-2.0769232 H 7.3143707 C 6.7163997,3.2273365 6.6907731,3.3309583 6.2427975,2.8799503 5.7954304,2.4294553 5.6106404,2.213123 4.8691707,2.2126557 H 2.8066681 Z m 0,1.0384616 h 2.0625027 c 0.3208841,-1.8e-6 0.536591,1.468e-4 1.0292403,0.4888038 0.4937322,0.4897489 0.6587634,0.5496577 1.0312513,0.5496577 h 8.252073 c 0.571313,0 1.031251,0.4631539 1.031251,1.0384616 V 6.3664708 H 1.775489 V 4.2895476 c 0,-0.5753077 0.4599381,-1.0384615 1.0312513,-1.0384615 z"
     fill="currentColor"
     id="path1"
     style="stroke-width:1.03485;fill:#707070" />
  <path
     d="M 12.5,8 A 3.5,3.5 0 0 0 9,11.5 3.5,3.5 0 0 0 12.5,15 3.5,3.5 0 0 0 16,11.5 3.5,3.5 0 0 0 12.5,8 Z m 0,1.0859 2.5,2.5 -0.70703,0.70703 -1.293,-1.293 v 3 h -1 v -3 l -1.293,1.293 -0.70703,-0.70703 2.5,-2.5 z"
     fill="currentColor"
     class="ColorScheme-Text"
     id="path2"
     style="fill:#707070" />
</svg>
