<?xml version="1.0" encoding="UTF-8" standalone="no"?>
<svg
   width="18"
   height="18"
   version="1.1"
   id="svg10"
   sodipodi:docname="preferences-system-time-symbolic.svg"
   inkscape:version="1.3.2 (091e20e, 2023-11-25)"
   xmlns:inkscape="http://www.inkscape.org/namespaces/inkscape"
   xmlns:sodipodi="http://sodipodi.sourceforge.net/DTD/sodipodi-0.dtd"
   xmlns="http://www.w3.org/2000/svg"
   xmlns:svg="http://www.w3.org/2000/svg">
  <defs
     id="defs14" />
  <sodipodi:namedview
     id="namedview12"
     pagecolor="#ffffff"
     bordercolor="#666666"
     borderopacity="1.0"
     inkscape:showpageshadow="2"
     inkscape:pageopacity="0.0"
     inkscape:pagecheckerboard="0"
     inkscape:deskcolor="#d1d1d1"
     showgrid="true"
     inkscape:zoom="14.75"
     inkscape:cx="19.423729"
     inkscape:cy="8.8135593"
     inkscape:window-width="1432"
     inkscape:window-height="657"
     inkscape:window-x="370"
     inkscape:window-y="45"
     inkscape:window-maximized="0"
     inkscape:current-layer="svg10">
    <inkscape:grid
       id="grid1"
       units="px"
       originx="0"
       originy="0"
       spacingx="1"
       spacingy="1"
       empcolor="#0099e5"
       empopacity="0.30196078"
       color="#0099e5"
       opacity="0.14901961"
       empspacing="5"
       dotted="false"
       gridanglex="30"
       gridanglez="30"
       visible="true" />
  </sodipodi:namedview>
  <g
     class="ColorScheme-Text"
     color="#707070"
     fill="currentColor"
     id="g8"
     transform="matrix(1.03125,0,0,1.03125,0.74576271,0.74576271)"
     style="fill:#dedede;fill-opacity:1">
    <path
       d="M 8,0 A 8,8 0 0 1 16,8 8,8 0 0 1 8,16 8,8 0 0 1 0,8 8,8 0 0 1 8,0 Z M 8,1 A 7,7 0 0 0 1,8 7,7 0 0 0 8,15 7,7 0 0 0 15,8 7,7 0 0 0 8,1 Z"
       id="path2"
       style="fill:#dedede;fill-opacity:1" />
    <rect
       x="-8"
       y="2"
       width="1"
       height="7"
       ry="0.5"
       id="rect4"
       transform="scale(-1,1)"
       style="fill:#dedede;fill-opacity:1" />
    <rect
       transform="matrix(0,1,1,0,0,0)"
       x="8"
       y="7"
       width="1"
       height="6"
       ry="0.5"
       id="rect6"
       style="fill:#dedede;fill-opacity:1" />
  </g>
</svg>
