<?xml version="1.0" encoding="UTF-8" standalone="no"?>
<svg
   width="18"
   height="18"
   version="1.1"
   id="svg1"
   sodipodi:docname="preferences-system-symbolic.svg"
   inkscape:version="1.3 (0e150ed, 2023-07-21)"
   xmlns:inkscape="http://www.inkscape.org/namespaces/inkscape"
   xmlns:sodipodi="http://sodipodi.sourceforge.net/DTD/sodipodi-0.dtd"
   xmlns="http://www.w3.org/2000/svg"
   xmlns:svg="http://www.w3.org/2000/svg">
  <defs
     id="defs1" />
  <sodipodi:namedview
     id="namedview1"
     pagecolor="#ffffff"
     bordercolor="#000000"
     borderopacity="0.25"
     inkscape:showpageshadow="2"
     inkscape:pageopacity="0.0"
     inkscape:pagecheckerboard="0"
     inkscape:deskcolor="#d1d1d1"
     showgrid="true"
     inkscape:zoom="37.625"
     inkscape:cx="8"
     inkscape:cy="7.2026578"
     inkscape:window-width="1408"
     inkscape:window-height="747"
     inkscape:window-x="308"
     inkscape:window-y="25"
     inkscape:window-maximized="0"
     inkscape:current-layer="svg1">
    <inkscape:grid
       id="grid1"
       units="px"
       originx="0"
       originy="0"
       spacingx="1"
       spacingy="1"
       empcolor="#0099e5"
       empopacity="0.30196078"
       color="#0099e5"
       opacity="0.14901961"
       empspacing="5"
       dotted="false"
       gridanglex="30"
       gridanglez="30"
       visible="true" />
  </sodipodi:namedview>
  <path
     class="ColorScheme-Text"
     d="M 7.0111374,0.73840865 C 6.9426304,0.72895293 6.8723371,0.73388306 6.8011272,0.75296377 6.5162874,0.82928764 6.3484559,1.118939 6.4247759,1.4037817 L 6.5703256,1.9464795 A 7.4520794,7.4521544 0 0 0 5.3227411,2.5099689 c -0.014338,0.00667 -0.029699,0.00649 -0.043665,0.014555 -0.014287,0.00825 -0.022127,0.021877 -0.035347,0.031189 A 7.4520794,7.4521544 0 0 0 4.1313466,3.3520825 l -0.395056,-0.39506 c -0.2085199,-0.2085219 -0.5441722,-0.2085219 -0.752692,0 -0.2085198,0.208522 -0.2085198,0.5441776 0,0.7526996 l 0.3929801,0.392984 A 7.4520794,7.4521544 0 0 0 2.5511118,5.2525735 7.4520794,7.4521544 0 0 0 1.9668369,6.5416898 L 1.4303826,6.3982145 c -0.2848397,-0.076324 -0.57449137,0.091506 -0.65081131,0.3763551 -0.0763199,0.284849 0.0915051,0.5744972 0.37635131,0.650818 l 0.5385298,0.1455512 a 7.4520794,7.4521544 0 0 0 -0.00208,2.8174462 L 1.1559185,10.53186 c -0.28483978,0.07632 -0.45267125,0.365976 -0.37635131,0.650818 0.0763231,0.284843 0.36597161,0.452676 0.65081131,0.376355 l 0.5426924,-0.145551 a 7.4520794,7.4521544 0 0 0 1.4055687,2.438984 l -0.395056,0.39506 c -0.2085199,0.208522 -0.2085199,0.544177 0,0.752699 0.2085198,0.208522 0.5441721,0.208522 0.7526919,0 l 0.3929801,-0.392984 a 7.4520794,7.4521544 0 0 0 1.1498558,0.825476 7.4520794,7.4521544 0 0 0 1.2891033,0.58428 l -0.1434738,0.53646 c -0.076323,0.284842 0.091505,0.574497 0.3763513,0.650818 0.2848398,0.07632 0.5744914,-0.0915 0.6508114,-0.376355 l 0.1455497,-0.538536 a 7.4520794,7.4521544 0 0 0 2.8174187,0.0021 l 0.143473,0.53646 c 0.07632,0.284842 0.365972,0.452676 0.650812,0.376355 0.284839,-0.07632 0.452671,-0.365975 0.376351,-0.650818 l -0.14555,-0.542687 a 7.4520794,7.4521544 0 0 0 2.438959,-1.405583 l 0.395056,0.39506 c 0.20852,0.208522 0.544172,0.208522 0.752692,0 0.20852,-0.208522 0.20852,-0.544178 0,-0.7527 l -0.39298,-0.392984 a 7.4520794,7.4521544 0 0 0 0.825467,-1.149867 7.4520794,7.4521544 0 0 0 0.584275,-1.289116 l 0.536454,0.143475 c 0.28484,0.07632 0.574491,-0.0915 0.650811,-0.376355 0.07632,-0.284843 -0.0915,-0.574487 -0.376351,-0.650818 l -0.53853,-0.145551 A 7.4520794,7.4521544 0 0 0 16.45096,9.0078129 c 5.77e-4,-0.010199 0.0063,-0.01876 0.0063,-0.02911 0,-0.013327 -0.0073,-0.024352 -0.0083,-0.037427 A 7.4520794,7.4521544 0 0 0 16.317963,7.5689373 l 0.536454,-0.1434752 c 0.28484,-0.076324 0.452671,-0.3659753 0.376351,-0.650818 C 17.154448,6.4898015 16.864797,6.3219683 16.579957,6.398289 L 16.037275,6.5438403 A 7.4520794,7.4521544 0 0 0 14.631707,4.1048566 l 0.395056,-0.39506 c 0.20852,-0.2085219 0.20852,-0.5441776 0,-0.7526995 -0.20852,-0.208522 -0.544172,-0.208522 -0.752692,0 l -0.39298,0.392984 A 7.4520794,7.4521544 0 0 0 12.731216,2.5246059 7.4520794,7.4521544 0 0 0 11.442113,1.9403251 L 11.585586,1.4038658 C 11.661906,1.1190231 11.494086,0.82936854 11.209235,0.75304787 10.924331,0.67667397 10.63469,0.84450387 10.55836,1.1293497 L 10.41281,1.667885 A 7.4520794,7.4521544 0 0 0 7.5953921,1.665809 L 7.4519183,1.1293497 C 7.3946757,0.91571774 7.2166349,0.76681304 7.0111172,0.73844165 Z M 8.7036111,2.5972953 a 6.3874966,6.3875609 0 0 1 3.4952379,0.8504292 6.3874966,6.3875609 0 0 1 3.164685,4.9985858 H 11.063578 A 2.1291655,2.129187 0 0 0 9.0051009,6.8494201 2.1291655,2.129187 0 0 0 8.4374654,6.9284332 L 6.2854113,3.202356 A 6.3874966,6.3875609 0 0 1 8.7036111,2.5972836 Z M 5.3643343,3.7388589 7.5142592,7.4607842 A 2.1291655,2.129187 0 0 0 6.8759248,8.9786816 2.1291655,2.129187 0 0 0 7.5121833,10.496579 L 5.3622584,14.220527 A 6.3874966,6.3875609 0 0 1 3.4743273,5.7849011 6.3874966,6.3875609 0 0 1 5.3643876,3.7388589 Z M 9.0051009,7.9140881 A 1.0645828,1.0645935 0 0 1 10.069684,8.9786816 1.0645828,1.0645935 0 0 1 9.0051009,10.043275 1.0645828,1.0645935 0 0 1 7.9405182,8.9786816 1.0645828,1.0645935 0 0 1 9.0051009,7.9140881 Z M 11.0656,9.5109784 h 4.297828 a 6.3874966,6.3875609 0 0 1 -0.827543,2.6614836 6.3874966,6.3875609 0 0 1 -8.2505162,2.580361 l 2.1499249,-3.721925 a 2.1291655,2.129187 0 0 0 0.5697221,0.07693 2.1291655,2.129187 0 0 0 2.0604992,-1.5968898 z"
     color="#707070"
     fill="#707070"
     id="path1"
     style="stroke-width:1.06459;fill:#707070" />
</svg>
