<?xml version="1.0" encoding="UTF-8" standalone="no"?>
<svg
   width="18"
   height="18"
   version="1.1"
   id="svg3"
   sodipodi:docname="printer-symbolic.svg"
   inkscape:version="1.3 (0e150ed, 2023-07-21)"
   xmlns:inkscape="http://www.inkscape.org/namespaces/inkscape"
   xmlns:sodipodi="http://sodipodi.sourceforge.net/DTD/sodipodi-0.dtd"
   xmlns="http://www.w3.org/2000/svg"
   xmlns:svg="http://www.w3.org/2000/svg">
  <defs
     id="defs3" />
  <sodipodi:namedview
     id="namedview3"
     pagecolor="#ffffff"
     bordercolor="#000000"
     borderopacity="0.25"
     inkscape:showpageshadow="2"
     inkscape:pageopacity="0.0"
     inkscape:pagecheckerboard="0"
     inkscape:deskcolor="#d1d1d1"
     showgrid="true"
     inkscape:zoom="37.625"
     inkscape:cx="8"
     inkscape:cy="13.182724"
     inkscape:window-width="1408"
     inkscape:window-height="747"
     inkscape:window-x="308"
     inkscape:window-y="25"
     inkscape:window-maximized="0"
     inkscape:current-layer="svg3">
    <inkscape:grid
       id="grid3"
       units="px"
       originx="0"
       originy="0"
       spacingx="1"
       spacingy="1"
       empcolor="#0099e5"
       empopacity="0.30196078"
       color="#0099e5"
       opacity="0.14901961"
       empspacing="5"
       dotted="false"
       gridanglex="30"
       gridanglez="30"
       visible="true" />
  </sodipodi:namedview>
  <g
     fill="#707070"
     id="g3"
     transform="matrix(1.03125,0,0,1.03125,0.74418604,0.77076412)"
     style="fill:#707070">
    <path
       class="ColorScheme-Text"
       d="M 2,3 C 0.892,3 0,3.892 0,5 v 6 c 0,1.108 0.892,2 2,2 H 4 V 12 H 2 C 1.446,12 1,11.554 1,11 V 5 C 1,4.446 1.446,4 2,4 h 12 c 0.554,0 1,0.446 1,1 v 6 c 0,0.554 -0.446,1 -1,1 h -2 v 1 h 2 c 1.108,0 2,-0.892 2,-2 V 5 C 16,3.892 15.108,3 14,3 Z"
       color="#707070"
       id="path1"
       style="fill:#707070" />
    <path
       class="ColorScheme-Text"
       d="M 5,0 C 3.892,0 2.9634,0.8926 3,2 V 4 H 4 V 2 C 4,1.446 4.446,1 5,1 h 6 c 0.554,0 1.0418,0.44758 1,1 v 2 h 1 V 2 C 13,0.892 12.108,0 11,0 Z"
       color="#707070"
       id="path2"
       style="fill:#707070" />
    <rect
       class="ColorScheme-Text"
       x="5"
       y="10"
       width="6"
       height="1"
       color="#707070"
       id="rect2"
       style="fill:#707070" />
    <rect
       class="ColorScheme-Text"
       x="5"
       y="12"
       width="6"
       height="1"
       color="#707070"
       id="rect3"
       style="fill:#707070" />
    <path
       class="ColorScheme-Text"
       d="M 5,7 C 3.892,7 3,7.892 3,9 v 5 c 0,1.108 0.892,2 2,2 h 6 c 1.108,0 2,-0.892 2,-2 V 9 C 13,7.892 12.108,7 11,7 Z m 0,1 h 6 c 0.554,0 1,0.446 1,1 v 5 c 0,0.554 -0.446,1 -1,1 H 5 C 4.446,15 4,14.554 4,14 V 9 C 4,8.446 4.446,8 5,8 Z"
       color="#707070"
       id="path3"
       style="fill:#707070" />
    <circle
       class="ColorScheme-Text"
       cx="13.5"
       cy="5.5"
       r="0.5"
       color="#707070"
       id="circle3"
       style="fill:#707070" />
  </g>
</svg>
