<?xml version="1.0" encoding="UTF-8" standalone="no"?>
<svg
   width="18"
   height="18"
   version="1.1"
   id="svg2"
   sodipodi:docname="save-folder-symbolic.svg"
   inkscape:version="1.3 (0e150ed, 2023-07-21)"
   xmlns:inkscape="http://www.inkscape.org/namespaces/inkscape"
   xmlns:sodipodi="http://sodipodi.sourceforge.net/DTD/sodipodi-0.dtd"
   xmlns="http://www.w3.org/2000/svg"
   xmlns:svg="http://www.w3.org/2000/svg">
  <sodipodi:namedview
     id="namedview2"
     pagecolor="#ffffff"
     bordercolor="#000000"
     borderopacity="0.25"
     inkscape:showpageshadow="2"
     inkscape:pageopacity="0.0"
     inkscape:pagecheckerboard="0"
     inkscape:deskcolor="#d1d1d1"
     showgrid="true"
     inkscape:zoom="37.625"
     inkscape:cx="8"
     inkscape:cy="8.6644518"
     inkscape:window-width="1408"
     inkscape:window-height="747"
     inkscape:window-x="308"
     inkscape:window-y="25"
     inkscape:window-maximized="0"
     inkscape:current-layer="svg2">
    <inkscape:grid
       id="grid2"
       units="px"
       originx="0"
       originy="0"
       spacingx="1"
       spacingy="1"
       empcolor="#0099e5"
       empopacity="0.30196078"
       color="#0099e5"
       opacity="0.14901961"
       empspacing="5"
       dotted="false"
       gridanglex="30"
       gridanglez="30"
       visible="true" />
  </sodipodi:namedview>
  <defs
     id="defs1">
    <style
       id="current-color-scheme"
       type="text/css">.ColorScheme-Text { color:#707070; }</style>
  </defs>
  <path
     class="ColorScheme-Text"
     d="m 2.8332667,2.2392026 c -1.1426265,0 -2.06250258,0.9263077 -2.06250258,2.0769231 V 13.66228 c 0,1.150615 0.91987608,2.076923 2.06250258,2.076923 H 10.750905 A 4.6406308,4.6730769 0 0 1 9.8062579,14.700741 H 2.8332461 c -0.5713133,0 -1.0312513,-0.463153 -1.0312513,-1.038461 V 7.4315103 H 16.239513 v 0.7889919 a 4.6406308,4.6730769 0 0 1 1.031251,0.9492162 v -3.8151 c 0,-1.1506154 -0.919876,-2.0769231 -2.062503,-2.0769231 H 7.3409486 C 6.7429775,3.2539145 6.7173509,3.3575364 6.2693753,2.9065284 5.8220082,2.4560334 5.6372183,2.2397011 4.8957486,2.2392338 H 2.8332461 Z m 0,1.0384615 h 2.0625026 c 0.3208841,-1.7e-6 0.5365909,1.469e-4 1.0292403,0.4888039 0.4937322,0.4897488 0.6587633,0.5496577 1.0312513,0.5496577 h 8.2520731 c 0.571313,0 1.031251,0.4631538 1.031251,1.0384615 V 6.3930488 H 1.802067 V 4.3161257 c 0,-0.5753077 0.459938,-1.0384616 1.0312512,-1.0384616 z"
     fill="currentColor"
     id="path1"
     style="stroke-width:1.03485;fill:#707070" />
  <path
     d="M 12.5,15 A 3.5,3.5 0 0 1 9,11.5 3.5,3.5 0 0 1 12.5,8 3.5,3.5 0 0 1 16,11.5 3.5,3.5 0 0 1 12.5,15 Z m 0,-1.0859 2.5,-2.5 -0.70703,-0.70703 -1.293,1.293 v -3 h -1 v 3 l -1.293,-1.293 -0.70703,0.70703 2.5,2.5 z"
     fill="currentColor"
     class="ColorScheme-Text"
     id="path2"
     style="fill:#707070" />
</svg>
