<?xml version="1.0" encoding="UTF-8" standalone="no"?>
<svg
   width="16px"
   height="16px"
   version="1.1"
   viewBox="0 0 16 16"
   id="svg1"
   sodipodi:docname="screen-blocked-symbolic.svg"
   inkscape:version="1.3.2 (091e20e, 2023-11-25)"
   xmlns:inkscape="http://www.inkscape.org/namespaces/inkscape"
   xmlns:sodipodi="http://sodipodi.sourceforge.net/DTD/sodipodi-0.dtd"
   xmlns="http://www.w3.org/2000/svg"
   xmlns:svg="http://www.w3.org/2000/svg">
  <defs
     id="defs1" />
  <sodipodi:namedview
     id="namedview1"
     pagecolor="#ffffff"
     bordercolor="#000000"
     borderopacity="0.25"
     inkscape:showpageshadow="2"
     inkscape:pageopacity="0.0"
     inkscape:pagecheckerboard="0"
     inkscape:deskcolor="#d1d1d1"
     inkscape:zoom="37.625"
     inkscape:cx="7.986711"
     inkscape:cy="6.538206"
     inkscape:window-width="1408"
     inkscape:window-height="747"
     inkscape:window-x="308"
     inkscape:window-y="25"
     inkscape:window-maximized="0"
     inkscape:current-layer="svg1" />
  <path
     d="m 2.9246273,0.92462722 c -1.1075,0 -2.00000004,0.89252998 -2.00000004,1.99999998 v 6 c 0,1.1074998 0.89253004,1.9999998 2.00000004,1.9999998 v -1 c -0.554,0 -1,-0.4459998 -1,-0.9999998 v -5 c 0,-0.554 0.446,-1 1,-1 h 6.9999998 c 0.5539999,0 0.9999999,0.446 0.9999999,1 h 1 v -1 c 0,-1.1075 -0.89253,-1.99999998 -1.9999999,-1.99999998 z M 10.924627,7.9246272 v 1 c 0,0.554 -0.446,0.9999998 -0.9999999,0.9999998 H 5.9246273 v 1 h 3.9999998 c 1.1074999,0 1.9999999,-0.89253 1.9999999,-1.9999998 v -1 z"
     fill="#707070"
     opacity="0.35"
     style="paint-order:stroke fill markers"
     id="path1" />
  <path
     d="m 5.9246273,4.9246272 c -1.1075,0 -2,0.89253 -2,2 v 5.9999998 c 0,1.1075 0.89253,2 2,2 h 6.9999997 c 1.1075,0 2,-0.89253 2,-2 V 6.9246272 c 0,-1.1075 -0.89253,-2 -2,-2 z m 0,2 h 6.9999997 c 0.554,0 1,0.446 1,1 v 4.9999998 c 0,0.554 -0.446,1 -1,1 H 5.9246273 c -0.554,0 -1,-0.446 -1,-1 V 7.9246272 c 0,-0.554 0.446,-1 1,-1 z"
     fill="#707070"
     opacity="0.35"
     style="paint-order:stroke fill markers"
     id="path2" />
  <rect
     transform="rotate(45)"
     x="1.2071068"
     y="-0.5"
     width="20"
     height="1"
     rx="0"
     ry="0"
     fill="#707070"
     id="rect2" />
</svg>
