<?xml version="1.0" encoding="UTF-8" standalone="no"?>
<svg
   height="18"
   width="18"
   version="1.1"
   id="svg2"
   sodipodi:docname="screenshot-symbolic.svg"
   inkscape:version="1.3 (0e150ed, 2023-07-21)"
   xmlns:inkscape="http://www.inkscape.org/namespaces/inkscape"
   xmlns:sodipodi="http://sodipodi.sourceforge.net/DTD/sodipodi-0.dtd"
   xmlns="http://www.w3.org/2000/svg"
   xmlns:svg="http://www.w3.org/2000/svg">
  <defs
     id="defs2" />
  <sodipodi:namedview
     id="namedview2"
     pagecolor="#ffffff"
     bordercolor="#000000"
     borderopacity="0.25"
     inkscape:showpageshadow="2"
     inkscape:pageopacity="0.0"
     inkscape:pagecheckerboard="0"
     inkscape:deskcolor="#d1d1d1"
     showgrid="true"
     inkscape:zoom="37.625"
     inkscape:cx="8"
     inkscape:cy="9.9401993"
     inkscape:window-width="1408"
     inkscape:window-height="747"
     inkscape:window-x="308"
     inkscape:window-y="25"
     inkscape:window-maximized="0"
     inkscape:current-layer="svg2">
    <inkscape:grid
       id="grid2"
       units="px"
       originx="0"
       originy="0"
       spacingx="1"
       spacingy="1"
       empcolor="#0099e5"
       empopacity="0.30196078"
       color="#0099e5"
       opacity="0.14901961"
       empspacing="5"
       dotted="false"
       gridanglex="30"
       gridanglez="30"
       visible="true" />
  </sodipodi:namedview>
  <g
     fill="#707070"
     id="g2"
     transform="matrix(1.0666667,0,0,1.0769231,-0.06666667,-0.15384615)"
     style="fill:#707070">
    <path
       d="m 11,12 h 5 v 1 h -5 z"
       id="path1"
       style="fill:#707070" />
    <path
       d="m 13,10 h 1 v 5 h -1 z m 0,-2 h 1 V 9 H 13 Z M 1,8 H 2 V 9 H 1 Z M 13,4 h 1 V 5 H 13 Z M 1,4 H 2 V 5 H 1 Z M 13,2 h 1 V 3 H 13 Z M 1,2 H 2 V 3 H 1 Z m 0,8 h 1 v 1 H 1 Z m 0,2 h 1 v 1 H 1 Z m 2,0 h 1 v 1 H 3 Z m 2,0 h 1 v 1 H 5 Z m 2,0 h 1 v 1 H 7 Z M 3,2 H 4 V 3 H 3 Z M 5,2 H 6 V 3 H 5 Z M 7,2 H 8 V 3 H 7 Z m 4,0 h 1 V 3 H 11 Z M 9,12 h 1 v 1 H 9 Z M 9,2 h 1 V 3 H 9 Z m 4,4 h 1 V 7 H 13 Z M 1,6 H 2 V 7 H 1 Z"
       id="path2"
       style="fill:#707070" />
  </g>
</svg>
