<?xml version="1.0" encoding="UTF-8" standalone="no"?>
<svg
   width="16px"
   height="16px"
   version="1.1"
   viewBox="0 0 16 16"
   id="svg1"
   sodipodi:docname="screen-symbolic.svg"
   inkscape:version="1.3.2 (091e20e, 2023-11-25)"
   xmlns:inkscape="http://www.inkscape.org/namespaces/inkscape"
   xmlns:sodipodi="http://sodipodi.sourceforge.net/DTD/sodipodi-0.dtd"
   xmlns="http://www.w3.org/2000/svg"
   xmlns:svg="http://www.w3.org/2000/svg">
  <defs
     id="defs1" />
  <sodipodi:namedview
     id="namedview1"
     pagecolor="#ffffff"
     bordercolor="#000000"
     borderopacity="0.25"
     inkscape:showpageshadow="2"
     inkscape:pageopacity="0.0"
     inkscape:pagecheckerboard="0"
     inkscape:deskcolor="#d1d1d1"
     inkscape:zoom="37.625"
     inkscape:cx="7.986711"
     inkscape:cy="8"
     inkscape:window-width="1408"
     inkscape:window-height="747"
     inkscape:window-x="308"
     inkscape:window-y="25"
     inkscape:window-maximized="0"
     inkscape:current-layer="svg1" />
  <path
     d="M 3,1 C 1.8925,1 1,1.89253 1,3 v 6 c 0,1.1075 0.89253,2 2,2 V 10 C 2.446,10 2,9.554 2,9 V 4 C 2,3.446 2.446,3 3,3 h 7 c 0.554,0 1,0.446 1,1 h 1 V 3 C 12,1.8925 11.10747,1 10,1 Z m 8,7 v 1 c 0,0.554 -0.446,1 -1,1 H 6 v 1 h 4 c 1.1075,0 2,-0.89253 2,-2 V 8 Z"
     fill="#707070"
     style="paint-order:stroke fill markers"
     id="path1" />
  <path
     d="M 6,5 C 4.8925,5 4,5.89253 4,7 v 6 c 0,1.1075 0.89253,2 2,2 h 7 c 1.1075,0 2,-0.89253 2,-2 V 7 C 15,5.8925 14.10747,5 13,5 Z m 0,2 h 7 c 0.554,0 1,0.446 1,1 v 5 c 0,0.554 -0.446,1 -1,1 H 6 C 5.446,14 5,13.554 5,13 V 8 C 5,7.446 5.446,7 6,7 Z"
     fill="#707070"
     style="paint-order:stroke fill markers"
     id="path2" />
</svg>
