<?xml version="1.0" encoding="UTF-8" standalone="no"?>
<svg
   width="18"
   height="18"
   version="1.1"
   viewBox="0 0 18 18"
   id="svg2"
   sodipodi:docname="tab-sync-symbolic.svg"
   inkscape:version="1.3 (0e150ed, 2023-07-21)"
   xmlns:inkscape="http://www.inkscape.org/namespaces/inkscape"
   xmlns:sodipodi="http://sodipodi.sourceforge.net/DTD/sodipodi-0.dtd"
   xmlns="http://www.w3.org/2000/svg"
   xmlns:svg="http://www.w3.org/2000/svg">
  <defs
     id="defs2" />
  <sodipodi:namedview
     id="namedview2"
     pagecolor="#ffffff"
     bordercolor="#000000"
     borderopacity="0.25"
     inkscape:showpageshadow="2"
     inkscape:pageopacity="0.0"
     inkscape:pagecheckerboard="0"
     inkscape:deskcolor="#d1d1d1"
     showgrid="true"
     inkscape:zoom="37.625"
     inkscape:cx="8"
     inkscape:cy="9.5946844"
     inkscape:window-width="1408"
     inkscape:window-height="747"
     inkscape:window-x="308"
     inkscape:window-y="25"
     inkscape:window-maximized="0"
     inkscape:current-layer="svg2">
    <inkscape:grid
       id="grid2"
       units="px"
       originx="0"
       originy="0"
       spacingx="1"
       spacingy="1"
       empcolor="#0099e5"
       empopacity="0.30196078"
       color="#0099e5"
       opacity="0.14901961"
       empspacing="5"
       dotted="false"
       gridanglex="30"
       gridanglez="30"
       visible="true" />
  </sodipodi:namedview>
  <path
     d="m 2.8332642,2.744186 c -1.1426251,0 -2.06250004,0.9291666 -2.06250004,2.0833332 v 8.3333328 c 0,1.154167 0.91987494,2.083334 2.06250004,2.083334 H 9.8062674 C 9.5928917,14.919863 9.4203634,14.569946 9.2926534,14.202519 H 2.8332126 c -0.5713125,0 -1.03125,-0.464583 -1.03125,-1.041667 l 5.15e-5,-5.2083329 H 16.239513 v 0.7914271 c 0.389349,0.263 0.737035,0.5840104 1.03125,0.9521458 V 4.8275505 c 0,-1.1541666 -0.919875,-2.0833333 -2.0625,-2.0833333 H 2.8332642 Z m 0,1.0416666 H 15.208263 c 0.571313,0 1.03125,0.4645833 1.03125,1.0416666 V 6.9108525 H 9.0207643 V 5.8691859 H 1.8020141 V 4.8275192 c 0,-0.5770833 0.4599375,-1.0416666 1.0312501,-1.0416666 z"
     fill="#707070"
     id="path1"
     style="stroke-width:1.03644;fill:#707070" />
  <path
     d="m 12.5,8.0215 c -1.933,0 -3.5,1.567 -3.5,3.5 0,1.933 1.567,3.5 3.5,3.5 1.933,0 3.5,-1.567 3.5,-3.5 0,-1.933 -1.567,-3.5 -3.5,-3.5 z m -0.01367,0.97852 a 2.5,2.5 0 0 1 1.8848,0.8418 l -0.89844,0.51953 a 1.5,1.5 0 0 0 -1.7227,-0.16016 1.5,1.5 0 0 0 -0.72461,1.5723 l -0.89453,0.51758 a 2.5,2.5 0 0 1 1.1191,-2.957 2.5,2.5 0 0 1 1.2363,-0.33398 z m 2.3828,1.709 a 2.5,2.5 0 0 1 -1.1191,2.957 2.5,2.5 0 0 1 -3.1211,-0.50781 l 0.89844,-0.51953 a 1.5,1.5 0 0 0 1.7227,0.16016 1.5,1.5 0 0 0 0.72461,-1.5723 l 0.89453,-0.51758 z"
     fill="#707070"
     id="path2"
     style="fill:#707070" />
</svg>
