<?xml version="1.0" encoding="UTF-8" standalone="no"?>
<svg
   width="18"
   height="18"
   version="1.1"
   id="svg1"
   sodipodi:docname="user-home-symbolic.svg"
   inkscape:version="1.3.2 (091e20e, 2023-11-25)"
   xmlns:inkscape="http://www.inkscape.org/namespaces/inkscape"
   xmlns:sodipodi="http://sodipodi.sourceforge.net/DTD/sodipodi-0.dtd"
   xmlns="http://www.w3.org/2000/svg"
   xmlns:svg="http://www.w3.org/2000/svg">
  <defs
     id="defs1">
    <clipPath
       clipPathUnits="userSpaceOnUse"
       id="clipPath5">
      <path
         d="M 0,0 H 36 V 60 H 0 Z"
         id="path5" />
    </clipPath>
    <clipPath
       clipPathUnits="userSpaceOnUse"
       id="clipPath11">
      <path
         d="M 0,0 H 36 V 60 H 0 Z"
         id="path11" />
    </clipPath>
  </defs>
  <sodipodi:namedview
     id="namedview1"
     pagecolor="#ffffff"
     bordercolor="#000000"
     borderopacity="0.25"
     inkscape:showpageshadow="2"
     inkscape:pageopacity="0.0"
     inkscape:pagecheckerboard="0"
     inkscape:deskcolor="#d1d1d1"
     showgrid="true"
     inkscape:zoom="37.625"
     inkscape:cx="7.986711"
     inkscape:cy="10.099668"
     inkscape:window-width="1408"
     inkscape:window-height="747"
     inkscape:window-x="135"
     inkscape:window-y="25"
     inkscape:window-maximized="0"
     inkscape:current-layer="svg1">
    <inkscape:grid
       id="grid1"
       units="px"
       originx="0"
       originy="0"
       spacingx="1"
       spacingy="1"
       empcolor="#0099e5"
       empopacity="0.30196078"
       color="#0099e5"
       opacity="0.14901961"
       empspacing="5"
       dotted="false"
       gridanglex="30"
       gridanglez="30"
       visible="true" />
  </sodipodi:namedview>
  <path
     id="path10"
     clip-path="url(#clipPath11)"
     style="display:inline;fill:#707070;fill-opacity:1;fill-rule:nonzero;stroke:none"
     transform="matrix(0.575,0,0,-0.575,-1.3556477,26.046595)"
     d="m 21,20 h -1 v 2 h 1 z m -7,-5 h 8 v 12 h -8 z m 10.273003,23.322259 3.478261,-3.478261 v 7.652174 h -3.478261 z m -6.263046,6.020491 c -0.248119,0 -0.496162,-0.09517 -0.686294,-0.287143 L 3.5979653,30.191851 c -0.3802459,-0.383962 -0.3802459,-1.002023 0,-1.385984 0.3802459,-0.383962 0.9923237,-0.383962 1.3725697,0 l 1.3915363,1.405136 V 18.870336 c 0,-2.172002 1.7316553,-3.920581 3.8826347,-3.920581 h 15.53054 c 2.15098,0 3.882635,1.748579 3.882635,3.920581 v 11.340667 l 1.391538,-1.405136 c 0.380245,-0.383962 0.992325,-0.383962 1.37257,0 0.380244,0.383961 0.380244,1.002022 0,1.385984 L 18.696291,44.055607 c -0.190121,0.191979 -0.438175,0.287143 -0.686295,0.287143 z m 0,-2.36999 9.706587,-9.801448 V 18.870357 c 0,-1.086002 -0.865828,-1.960293 -1.941317,-1.960293 h -3.882636 v 5.880868 c 0,2.172004 -1.731656,3.920579 -3.882634,3.920579 -2.150979,0 -3.882635,-1.748575 -3.882635,-3.920579 v -5.880868 h -3.882635 c -1.0754896,0 -1.9413173,0.874291 -1.9413173,1.960293 v 13.300955 z" />
</svg>
