<?xml version="1.0" encoding="UTF-8" standalone="no"?>
<svg
   width="18"
   height="18"
   enable-background="new"
   version="1.1"
   id="svg2"
   sodipodi:docname="view-refresh-symbolic.svg"
   inkscape:version="1.3 (0e150ed, 2023-07-21)"
   xmlns:inkscape="http://www.inkscape.org/namespaces/inkscape"
   xmlns:sodipodi="http://sodipodi.sourceforge.net/DTD/sodipodi-0.dtd"
   xmlns="http://www.w3.org/2000/svg"
   xmlns:svg="http://www.w3.org/2000/svg">
  <defs
     id="defs2" />
  <sodipodi:namedview
     id="namedview2"
     pagecolor="#ffffff"
     bordercolor="#000000"
     borderopacity="0.25"
     inkscape:showpageshadow="2"
     inkscape:pageopacity="0.0"
     inkscape:pagecheckerboard="0"
     inkscape:deskcolor="#d1d1d1"
     inkscape:zoom="37.625"
     inkscape:cx="8"
     inkscape:cy="5.4219269"
     inkscape:window-width="1408"
     inkscape:window-height="747"
     inkscape:window-x="0"
     inkscape:window-y="25"
     inkscape:window-maximized="0"
     inkscape:current-layer="svg2" />
  <g
     fill="#707070"
     id="g2"
     style="fill:#707070;stroke:#707070;stroke-width:0.5;stroke-dasharray:none;stroke-opacity:1"
     transform="translate(0.85049834,1.2286759)">
    <path
       d="M 8,3 A 6,6 0 0 0 2,9 6,6 0 0 0 8,15 6,6 0 0 0 14,9 H 13 A 5,5 0 0 1 8,14 5,5 0 0 1 3,9 5,5 0 0 1 8,4 Z"
       id="path1"
       style="fill:#707070;stroke:#707070;stroke-width:0.5;stroke-dasharray:none;stroke-opacity:1" />
    <path
       d="M 8.1719,0.67188 7.46487,1.37891 9.58597,3.50001 7.46487,5.62111 8.1719,6.32814 11,3.50004 10.29297,2.79301 Z"
       id="path2"
       style="fill:#707070;stroke:#707070;stroke-width:0.5;stroke-dasharray:none;stroke-opacity:1" />
    <rect
       x="8"
       y="3"
       width="2"
       height="1"
       id="rect2"
       style="fill:#707070;stroke:#707070;stroke-width:0.5;stroke-dasharray:none;stroke-opacity:1" />
  </g>
</svg>
