<?xml version="1.0" encoding="UTF-8" standalone="no"?>
<svg
   width="18"
   height="18"
   version="1.1"
   viewBox="0 0 18 18"
   id="svg2"
   sodipodi:docname="window-new-symbolic.svg"
   inkscape:version="1.3 (0e150ed, 2023-07-21)"
   xmlns:inkscape="http://www.inkscape.org/namespaces/inkscape"
   xmlns:sodipodi="http://sodipodi.sourceforge.net/DTD/sodipodi-0.dtd"
   xmlns="http://www.w3.org/2000/svg"
   xmlns:svg="http://www.w3.org/2000/svg">
  <defs
     id="defs2" />
  <sodipodi:namedview
     id="namedview2"
     pagecolor="#ffffff"
     bordercolor="#000000"
     borderopacity="0.25"
     inkscape:showpageshadow="2"
     inkscape:pageopacity="0.0"
     inkscape:pagecheckerboard="0"
     inkscape:deskcolor="#d1d1d1"
     showgrid="true"
     inkscape:zoom="37.625"
     inkscape:cx="8"
     inkscape:cy="10.710963"
     inkscape:window-width="1408"
     inkscape:window-height="747"
     inkscape:window-x="308"
     inkscape:window-y="25"
     inkscape:window-maximized="0"
     inkscape:current-layer="svg2">
    <inkscape:grid
       id="grid2"
       units="px"
       originx="0"
       originy="0"
       spacingx="1"
       spacingy="1"
       empcolor="#0099e5"
       empopacity="0.30196078"
       color="#0099e5"
       opacity="0.14901961"
       empspacing="5"
       dotted="false"
       gridanglex="30"
       gridanglez="30"
       visible="true" />
  </sodipodi:namedview>
  <path
     d="m 3.6478482,1.5315621 c -1.1871471,0 -2.1428648,0.9557136 -2.1428648,2.1428556 V 14.388696 c 0,1.187142 0.9557177,2.142856 2.1428648,2.142856 h 6.173272 A 4.8214458,4.8214251 0 0 1 9.2874933,15.460124 H 3.6477946 c -0.5935735,0 -1.0714324,-0.477857 -1.0714324,-1.071428 V 5.8172733 c 0,-0.593571 0.4778589,-1.0714278 1.0714324,-1.0714278 H 14.362118 c 0.593574,0 1.071433,0.4778568 1.071433,1.0714278 v 3.496819 a 4.8214458,4.8214251 0 0 1 1.071432,0.5315246 V 3.674407 c 0,-1.187142 -0.955718,-2.1428556 -2.142865,-2.1428556 H 3.6477946 Z"
     fill="#707070"
     id="path1"
     style="stroke-width:1.07143;fill:#707070" />
  <path
     d="m 13.004983,9.5315614 c -1.933,0 -3.4999996,1.5670006 -3.4999996,3.5000006 0,1.933 1.5669996,3.5 3.4999996,3.5 1.933,0 3.5,-1.567 3.5,-3.5 0,-1.933 -1.567,-3.5000006 -3.5,-3.5000006 z m -0.5,1.0000006 h 1 v 2 h 2 v 1 h -2 v 2 h -1 v -2 h -2 v -1 h 2 z"
     fill="#707070"
     id="path2"
     style="fill:#707070" />
</svg>
